<?xml version="1.0" standalone="no"?>
<!DOCTYPE svg PUBLIC "-//W3C//DTD SVG 20010904//EN"
 "http://www.w3.org/TR/2001/REC-SVG-20010904/DTD/svg10.dtd">
<svg version="1.0" xmlns="http://www.w3.org/2000/svg"
 width="512.000000pt" height="512.000000pt" viewBox="0 0 512.000000 512.000000"
 preserveAspectRatio="xMidYMid meet">
<metadata>
Created by potrace 1.11, written by Peter Selinger 2001-2013
</metadata>
<g transform="translate(0.000000,512.000000) scale(0.100000,-0.100000)"
fill="#000000" stroke="none">
<path d="M1150 4295 l0 -415 -415 0 -415 0 0 -1670 0 -1670 85 0 c91 0 90 1
85 -57 l-1 -23 835 0 836 0 0 834 0 834 330 0 330 0 0 -794 0 -794 85 0 c91 0
90 1 85 -57 l-1 -23 835 0 836 0 0 1665 0 1665 -27 1 c-16 0 -54 1 -85 0 l-58
0 0 45 0 44 -330 0 c-307 0 -330 1 -331 18 0 9 -1 177 -1 373 l0 356 -67 1
c-36 0 -74 1 -83 1 -14 1 -18 10 -18 41 l0 40 -1255 0 -1255 0 0 -415z m1653
-504 c16 -1 17 -26 17 -376 l0 -375 -330 0 -330 0 0 374 c0 241 4 376 10 378
8 2 558 1 633 -1z"/>
</g>
</svg>
